<svg width="69" height="69" viewBox="0 0 69 69" fill="none" xmlns="http://www.w3.org/2000/svg">
<path d="M38.5517 35.2104C38.5517 45.1297 30.5653 53.1714 20.7131 53.1714C10.8609 53.1714 2.875 45.1323 2.875 35.2104C2.875 25.2886 10.8615 17.25 20.7131 17.25C30.5647 17.25 38.5517 25.291 38.5517 35.2104ZM58.121 35.2104C58.121 44.5484 54.1273 52.1174 49.2016 52.1174C44.2759 52.1174 40.2822 44.5458 40.2822 35.2104C40.2822 25.8749 44.2759 18.3034 49.2016 18.3034C54.1273 18.3034 58.121 25.8749 58.121 35.2104ZM66.125 35.2104C66.125 43.5767 64.7203 50.3585 62.9878 50.3585C61.2556 50.3585 59.8509 43.5744 59.8509 35.2104C59.8509 26.8465 61.2556 20.0624 62.9887 20.0624C64.7214 20.0624 66.125 26.8447 66.125 35.2104Z" fill="white"/>
</svg>
