<svg width="20" height="20" viewBox="0 0 20 20" fill="none" xmlns="http://www.w3.org/2000/svg">
<path d="M17.5956 8.92778C17.4269 8.92778 17.2652 8.99381 17.1459 9.11135C17.0266 9.22888 16.9596 9.38829 16.9596 9.55451V17.9902C16.9596 18.0895 16.9398 18.1879 16.9012 18.2796C16.8626 18.3714 16.8061 18.4547 16.7348 18.525C16.6636 18.5952 16.579 18.6509 16.4859 18.6889C16.3928 18.7269 16.293 18.7465 16.1922 18.7465H2.03939C1.93861 18.7465 1.83882 18.7269 1.74571 18.6889C1.65261 18.6509 1.56801 18.5952 1.49674 18.525C1.42548 18.4547 1.36895 18.3714 1.33039 18.2796C1.29182 18.1879 1.27197 18.0895 1.27197 17.9902V4.04351C1.27197 3.84294 1.35282 3.65059 1.49674 3.50876C1.64066 3.36694 1.83586 3.28726 2.03939 3.28726H10.6125C10.7811 3.28726 10.9429 3.22123 11.0622 3.1037C11.1815 2.98617 11.2485 2.82676 11.2485 2.66054C11.2485 2.49432 11.1815 2.33491 11.0622 2.21738C10.9429 2.09984 10.7811 2.03381 10.6125 2.03381H2.03939C1.49886 2.03492 0.98078 2.24701 0.598562 2.62366C0.216344 3.00031 0.00112029 3.51084 0 4.04351V17.9902C0.00112029 18.5229 0.216344 19.0334 0.598562 19.4101C0.98078 19.7867 1.49886 19.9988 2.03939 19.9999H16.1922C16.7327 19.9988 17.2508 19.7867 17.633 19.4101C18.0152 19.0334 18.2305 18.5229 18.2316 17.9902V9.53779C18.2272 9.37449 18.1582 9.21934 18.0394 9.1054C17.9206 8.99146 17.7614 8.92773 17.5956 8.92778Z" fill="white"/>
<path d="M19.9531 0.396926C19.9069 0.279923 19.826 0.179408 19.7208 0.108573C19.6156 0.0377374 19.4912 -0.000108902 19.3638 2.35375e-07H14.95C14.7814 2.35375e-07 14.6196 0.0660299 14.5003 0.183564C14.381 0.301097 14.314 0.460507 14.314 0.626725C14.314 0.792942 14.381 0.952352 14.5003 1.06989C14.6196 1.18742 14.7814 1.25345 14.95 1.25345H17.8289L12.5545 6.45108C12.4421 6.56989 12.381 6.72703 12.3839 6.88939C12.3868 7.05176 12.4535 7.20667 12.5701 7.3215C12.6866 7.43632 12.8438 7.5021 13.0086 7.50496C13.1733 7.50783 13.3328 7.44756 13.4533 7.33685L18.7278 2.13922V4.97619C18.7278 5.14241 18.7948 5.30182 18.9141 5.41935C19.0333 5.53689 19.1951 5.60292 19.3638 5.60292C19.5324 5.60292 19.6942 5.53689 19.8135 5.41935C19.9327 5.30182 19.9997 5.14241 19.9997 4.97619V0.626725C19.9994 0.547875 19.9836 0.469835 19.9531 0.396926Z" fill="white"/>
</svg>
