<svg width="55" height="55" viewBox="0 0 55 55" fill="none" xmlns="http://www.w3.org/2000/svg">
<path d="M42.602 13.4978C39.7833 12.1916 36.7812 11.2291 33.6187 10.6791C33.2291 11.3666 32.7708 12.3062 32.4729 13.0624C29.127 12.5583 25.8041 12.5583 22.5271 13.0624C22.2062 12.3062 21.7479 11.3666 21.3583 10.6791C18.1958 11.2291 15.1937 12.1916 12.375 13.4978C6.69165 22.0687 5.15623 30.4333 5.91248 38.6604C9.69373 41.4792 13.3375 43.175 16.9354 44.2979C17.8291 43.0833 18.6083 41.7771 19.2958 40.425C17.9896 39.9437 16.7521 39.325 15.5833 38.6146C15.9042 38.3854 16.2021 38.1333 16.5 37.9042C23.6729 41.25 31.4416 41.25 38.5229 37.9042C38.8208 38.1562 39.1187 38.3854 39.4395 38.6146C38.2708 39.325 37.0104 39.9208 35.727 40.425C36.4145 41.7771 37.1937 43.0833 38.0875 44.2979C41.6854 43.175 45.352 41.4792 49.1104 38.6604C50.0041 29.1042 47.575 20.8312 42.6479 13.4978H42.602ZM20.2583 33.6187C18.1041 33.6187 16.3396 31.625 16.3396 29.1729C16.3396 26.7208 18.0583 24.7271 20.2583 24.7271C22.4583 24.7271 24.2 26.7208 24.177 29.1729C24.177 31.6021 22.4583 33.6187 20.2583 33.6187ZM34.7187 33.6187C32.5645 33.6187 30.8 31.625 30.8 29.1729C30.8 26.7208 32.5187 24.7271 34.7187 24.7271C36.9187 24.7271 38.6604 26.7208 38.6375 29.1729C38.6375 31.6021 36.9187 33.6187 34.7187 33.6187Z" fill="white"/>
</svg>
