<svg width="107" height="107" viewBox="0 0 107 107" fill="none" xmlns="http://www.w3.org/2000/svg">
<path d="M2.28998 0.53125C1.31959 0.53468 0.534687 1.31966 0.53125 2.28998V30.5538C0.534687 31.5241 1.31959 32.3091 2.28998 32.3125H18.1909C18.8991 32.31 19.5015 31.8848 19.7807 31.2814C20.7056 31.7493 21.8424 32.3674 23.1326 33.0125C25.8513 34.3719 29.2376 35.8438 32.3091 35.8438H34.3299C33.8027 39.4685 34.1082 43.0726 35.1127 46.4375H18.5703C17.772 46.436 17.0724 46.9706 16.8633 47.741L11.1836 68.932C11.1422 69.0845 11.1261 69.238 11.125 69.3906V104.696C11.1213 105.672 11.9083 106.465 12.8837 106.469H104.696C105.677 106.473 106.473 105.677 106.469 104.696V69.3872C106.464 69.238 106.448 69.0845 106.407 68.932L100.734 47.741C100.525 46.9706 99.8252 46.436 99.0269 46.4375H82.4811C85.435 36.5673 81.9633 25.631 73.2909 19.3531C71.4832 18.0445 69.567 17.0256 67.5629 16.2667C62.2224 8.66042 54.3473 0.53125 44.6753 0.53125C40.1377 0.53125 34.3713 1.00451 29.2813 1.46924C25.2479 1.83747 21.7985 2.18412 19.9462 2.30032C19.9462 1.29768 19.1494 0.534653 18.1875 0.53125H2.28998ZM4.0625 4.0625H16.4184V28.7812H4.0625V4.0625ZM62.0971 14.8769C60.2167 14.6262 58.2992 14.5886 56.4209 14.7701C50.9544 15.2982 45.6398 17.6643 41.4958 21.7188H34.0816C31.7295 21.7188 31.7103 25.25 34.0816 25.25H46.4375C48.4244 25.249 49.9688 26.8426 49.9688 28.7744C49.9688 30.7061 48.4244 32.3125 46.4375 32.3125H32.3091C30.0905 32.3125 27.2868 31.1325 24.7086 29.8434C23.4195 29.1988 22.2311 28.5529 21.1911 28.0329C20.7747 27.8247 20.3618 27.6274 19.9531 27.457V5.84192C22.2625 5.69364 25.7053 5.33275 29.6089 4.97635C34.6712 4.51416 40.3883 4.06595 44.6788 4.06595C51.3557 4.06594 57.3457 9.0112 62.0971 14.8769ZM71.2252 22.2153C79.7891 28.4149 82.5411 40.13 77.367 49.5653C75.1073 53.6859 71.5318 56.9411 67.2733 58.7934H50.3274C41.3438 54.8838 36.2977 45.3499 37.9059 35.8438H43.2994C41.7551 42.5958 44.7825 49.6744 50.9205 53.1758C57.6756 57.0293 66.2591 55.4158 71.1494 49.3687C76.0396 43.3216 75.8478 34.603 70.6528 28.7881C68.0621 25.8884 64.5933 24.1333 60.9625 23.6327C58.0723 23.2341 55.0798 23.632 52.3241 24.8638C51.1625 23.1139 49.2447 21.9301 47.0444 21.7429C50.6629 19.3272 54.8923 18.13 59.1245 18.1944C63.3566 18.2591 67.5916 19.5848 71.2252 22.2153ZM68.0078 31.1366C72.0535 35.6635 72.2133 42.4392 68.4113 47.141C64.594 51.8612 57.9288 53.1161 52.6655 50.1136C47.6528 47.2541 45.3088 41.2537 46.9617 35.8162C50.5974 35.5644 53.5 32.5256 53.5 28.7744C53.5 28.5944 53.4857 28.3988 53.4724 28.2226C55.0405 27.4667 56.6855 27.0851 58.3589 27.026C61.9274 26.8998 65.493 28.3231 68.0078 31.1366ZM19.9255 49.9688H36.4645C38.0812 53.3735 40.4761 56.413 43.4994 58.7934H34.0816C31.6746 58.74 31.6746 62.3781 34.0816 62.3247H83.5191C85.926 62.3781 85.926 58.74 83.5191 58.7934H74.0909C76.6797 56.7606 78.8419 54.2222 80.4672 51.2585C80.6994 50.8349 80.921 50.4001 81.1258 49.9688H97.6717L102.403 67.6284H15.1977L19.9255 49.9688ZM14.6562 71.1562H102.938V102.938H14.6562V71.1562ZM53.4966 76.4531C49.5215 76.4531 46.4375 79.9303 46.4375 84.0501C46.4376 88.7877 49.4805 92.6123 52.3103 95.1681C55.1427 97.7262 57.9796 99.2097 57.9796 99.2097C58.2358 99.3442 58.5161 99.4126 58.7969 99.4131C59.0778 99.4126 59.3581 99.3442 59.6142 99.2097C59.6142 99.2097 62.451 97.7262 65.2835 95.1681C68.1133 92.6123 71.1562 88.7877 71.1562 84.0501C71.1562 79.9303 68.0722 76.4531 64.0972 76.4531C61.7335 76.4531 59.9279 77.7274 58.7969 78.9809C57.6658 77.7274 55.8603 76.4531 53.4966 76.4531ZM53.4966 79.9844C55.8503 79.9844 57.1864 82.8397 57.1864 82.8397C57.4994 83.5342 58.1472 83.8789 58.7969 83.8777C59.4468 83.8789 60.0941 83.5342 60.4073 82.8397C60.4073 82.8397 61.7435 79.9844 64.0972 79.9844C65.9385 79.9844 67.625 81.6997 67.625 84.0501C67.625 87.3408 65.3849 90.3307 62.9109 92.5507C60.9717 94.2907 59.2088 95.3604 58.7969 95.5922C58.3851 95.3604 56.6219 94.2907 54.6828 92.5507C52.2088 90.3307 49.9688 87.3339 49.9688 84.0501C49.9688 81.6997 51.6553 79.9844 53.4966 79.9844Z" fill="white"/>
</svg>
