<svg width="22" height="24" viewBox="0 0 22 24" fill="none" xmlns="http://www.w3.org/2000/svg">
<rect width="22" height="24" fill="#1E1E1E"/>
<g id="Home">
<rect width="1920" height="2000" transform="translate(-1680 -79)" fill="#1A1A1A"/>
<g id="Wallet">
<rect id="Rectangle 2" x="-241" y="-35" width="319" height="94" rx="47" fill="#DD6B20"/>
<g id="scan">
<rect id="wallet btn" x="-20.5147" y="-11" width="60.9853" height="46" rx="23" fill="#272727"/>
<g id="8837522061600002657 1">
<g id="Layer 67">
<path id="Vector" d="M19.2419 10.4903C19.0586 10.4903 18.8829 10.5679 18.7533 10.706C18.6237 10.8441 18.5509 11.0314 18.5509 11.2267V21.1387C18.5509 21.2554 18.5294 21.3709 18.4875 21.4787C18.4456 21.5865 18.3842 21.6845 18.3067 21.767C18.2293 21.8495 18.1374 21.915 18.0363 21.9596C17.9351 22.0043 17.8267 22.0273 17.7172 22.0273H2.34201C2.23252 22.0273 2.12411 22.0043 2.02296 21.9596C1.92181 21.915 1.8299 21.8495 1.75249 21.767C1.67507 21.6845 1.61366 21.5865 1.57176 21.4787C1.52986 21.3709 1.5083 21.2554 1.5083 21.1387V4.75129C1.5083 4.51562 1.59614 4.2896 1.75249 4.12296C1.90884 3.95631 2.12089 3.8627 2.34201 3.8627H11.6556C11.8388 3.8627 12.0146 3.78511 12.1441 3.64701C12.2737 3.50891 12.3465 3.3216 12.3465 3.12629C12.3465 2.93099 12.2737 2.74368 12.1441 2.60558C12.0146 2.46748 11.8388 2.38989 11.6556 2.38989H2.34201C1.75478 2.39119 1.19196 2.6404 0.776726 3.08296C0.361495 3.52553 0.127682 4.1254 0.126465 4.75129V21.1387C0.127682 21.7646 0.361495 22.3644 0.776726 22.807C1.19196 23.2496 1.75478 23.4988 2.34201 23.5001H17.7172C18.3045 23.4988 18.8673 23.2496 19.2825 22.807C19.6977 22.3644 19.9316 21.7646 19.9328 21.1387V11.2071C19.928 11.0152 19.8531 10.8329 19.724 10.699C19.595 10.5651 19.4219 10.4902 19.2419 10.4903Z" fill="white"/>
<path id="Vector_2" d="M21.8029 0.466388C21.7528 0.328909 21.6648 0.210805 21.5505 0.127573C21.4363 0.0443415 21.3011 -0.00012796 21.1627 2.76566e-07H16.3677C16.1845 2.76566e-07 16.0087 0.0775851 15.8792 0.215687C15.7496 0.353789 15.6768 0.541096 15.6768 0.736402C15.6768 0.931707 15.7496 1.11901 15.8792 1.25712C16.0087 1.39522 16.1845 1.4728 16.3677 1.4728H19.4953L13.7653 7.58002C13.6432 7.71962 13.5768 7.90426 13.5799 8.09504C13.5831 8.28581 13.6556 8.46784 13.7822 8.60276C13.9088 8.73768 14.0796 8.81497 14.2586 8.81833C14.4376 8.8217 14.6108 8.75088 14.7418 8.6208L20.4718 2.51358V5.84703C20.4718 6.04233 20.5446 6.22964 20.6741 6.36774C20.8037 6.50584 20.9795 6.58343 21.1627 6.58343C21.3459 6.58343 21.5217 6.50584 21.6512 6.36774C21.7808 6.22964 21.8536 6.04233 21.8536 5.84703V0.736402C21.8533 0.643753 21.836 0.552056 21.8029 0.466388Z" fill="white"/>
</g>
</g>
</g>
</g>
</g>
</svg>
