<svg width="90" height="90" viewBox="0 0 90 90" fill="none" xmlns="http://www.w3.org/2000/svg">
<path d="M67.957 45.8086C71.219 45.8086 73.8633 43.1643 73.8633 39.9023C73.8633 36.6404 71.219 33.9961 67.957 33.9961C64.6951 33.9961 62.0508 36.6404 62.0508 39.9023C62.0508 43.1643 64.6951 45.8086 67.957 45.8086Z" fill="white"/>
<path d="M60.6797 60.5039C63.9416 60.5039 66.5859 57.8596 66.5859 54.5977C66.5859 51.3357 63.9416 48.6914 60.6797 48.6914C57.4178 48.6914 54.7734 51.3357 54.7734 54.5977C54.7734 57.8596 57.4178 60.5039 60.6797 60.5039Z" fill="white"/>
<path d="M51.2578 61.5938H44.6133H37.9687C33.9258 61.5938 31.3945 64.9336 31.3945 69.1172V79.418H35.9297V70.3125C35.9297 69.8906 36.2812 69.6094 36.6328 69.6094C37.0547 69.6094 37.3359 69.8906 37.3359 70.3125V79.3828H51.9258V70.3125C51.9258 69.8906 52.2773 69.6094 52.6289 69.6094C53.0508 69.6094 53.332 69.9609 53.332 70.3125V79.3828H57.8672V69.1523C57.9375 64.9336 55.3711 61.5938 51.2578 61.5938Z" fill="white"/>
<path d="M52.9102 45.8086C56.1721 45.8086 58.8164 43.1643 58.8164 39.9023C58.8164 36.6404 56.1721 33.9961 52.9102 33.9961C49.6482 33.9961 47.0039 36.6404 47.0039 39.9023C47.0039 43.1643 49.6482 45.8086 52.9102 45.8086Z" fill="white"/>
<path d="M70.2773 54.5977C70.2773 57.8672 72.9141 60.5039 76.1836 60.5039C79.4531 60.5039 82.0898 57.8672 82.0898 54.5977C82.0898 51.3281 79.4531 48.6914 76.1836 48.6914C72.9141 48.6914 70.2773 51.3281 70.2773 54.5977Z" fill="white"/>
<path d="M69.6797 61.5937C65.6367 61.5937 63.1055 64.9336 63.1055 69.1172V79.418H67.6406V70.3125C67.6406 69.8906 67.9922 69.6094 68.3437 69.6094C68.7656 69.6094 69.0469 69.8906 69.0469 70.3125V79.3828H83.6367V70.3125C83.6367 69.8906 83.9883 69.6094 84.3398 69.6094C84.7617 69.6094 85.043 69.9609 85.043 70.3125V79.3828H89.5781V69.1523C89.6484 64.8984 87.082 61.5586 83.0039 61.5586H76.3594H69.6797V61.5937Z" fill="white"/>
<path d="M14.2734 60.5039C17.5354 60.5039 20.1797 57.8596 20.1797 54.5977C20.1797 51.3357 17.5354 48.6914 14.2734 48.6914C11.0115 48.6914 8.36719 51.3357 8.36719 54.5977C8.36719 57.8596 11.0115 60.5039 14.2734 60.5039Z" fill="white"/>
<path d="M5.48438 79.3828V70.3125C5.48438 69.8906 5.83594 69.6094 6.1875 69.6094C6.60938 69.6094 6.89063 69.8906 6.89063 70.3125V79.3828H21.4805V70.3125C21.4805 69.8906 21.832 69.6094 22.1836 69.6094C22.6055 69.6094 22.8867 69.9609 22.8867 70.3125V79.3828H27.4219V69.1523C27.4922 64.8984 24.9258 61.5586 20.8477 61.5586H14.2031H7.55859C3.51563 61.5586 0.984375 64.8984 0.984375 69.082V79.3828H5.48438Z" fill="white"/>
<path d="M38.707 54.5977C38.707 57.8672 41.3438 60.5039 44.6133 60.5039C47.8828 60.5039 50.5195 57.8672 50.5195 54.5977C50.5195 51.3281 47.8828 48.6914 44.6133 48.6914C41.3438 48.6914 38.707 51.3281 38.707 54.5977Z" fill="white"/>
<path d="M21.832 45.8086C25.094 45.8086 27.7383 43.1643 27.7383 39.9023C27.7383 36.6404 25.094 33.9961 21.832 33.9961C18.5701 33.9961 15.9258 36.6404 15.9258 39.9023C15.9258 43.1643 18.5701 45.8086 21.832 45.8086Z" fill="white"/>
<path d="M37.793 45.8086C41.0549 45.8086 43.6992 43.1643 43.6992 39.9023C43.6992 36.6404 41.0549 33.9961 37.793 33.9961C34.531 33.9961 31.8867 36.6404 31.8867 39.9023C31.8867 43.1643 34.531 45.8086 37.793 45.8086Z" fill="white"/>
<path d="M60.293 33.1875C63.5549 33.1875 66.1992 30.5432 66.1992 27.2812C66.1992 24.0193 63.5549 21.375 60.293 21.375C57.031 21.375 54.3867 24.0193 54.3867 27.2812C54.3867 30.5432 57.031 33.1875 60.293 33.1875Z" fill="white"/>
<path d="M29.2148 33.1875C32.4768 33.1875 35.1211 30.5432 35.1211 27.2812C35.1211 24.0193 32.4768 21.375 29.2148 21.375C25.9529 21.375 23.3086 24.0193 23.3086 27.2812C23.3086 30.5432 25.9529 33.1875 29.2148 33.1875Z" fill="white"/>
<path d="M45.1406 33.1875C48.4026 33.1875 51.0469 30.5432 51.0469 27.2812C51.0469 24.0193 48.4026 21.375 45.1406 21.375C41.8787 21.375 39.2344 24.0193 39.2344 27.2812C39.2344 30.5432 41.8787 33.1875 45.1406 33.1875Z" fill="white"/>
<path d="M29.8477 60.5039C33.1096 60.5039 35.7539 57.8596 35.7539 54.5977C35.7539 51.3357 33.1096 48.6914 29.8477 48.6914C26.5857 48.6914 23.9414 51.3357 23.9414 54.5977C23.9414 57.8596 26.5857 60.5039 29.8477 60.5039Z" fill="white"/>
</svg>
